<svg enable-background="new 0 0 128 128" viewBox="0 0 128 128" xmlns="http://www.w3.org/2000/svg" xmlns:xlink="http://www.w3.org/1999/xlink"><radialGradient id="a" cx="82.667" cy="49.833" gradientUnits="userSpaceOnUse" r="67.844"><stop offset="0" stop-color="#e0e0e0"/><stop offset=".2294" stop-color="#d7d7d7"/><stop offset=".6034" stop-color="#bfbfbf"/><stop offset="1" stop-color="#9e9e9e"/></radialGradient><linearGradient id="b"><stop offset=".0166" stop-color="#ffa726"/><stop offset=".4003" stop-color="#fc991a"/><stop offset="1" stop-color="#f57c00"/></linearGradient><linearGradient id="c" gradientUnits="userSpaceOnUse" x1="22" x2="22" xlink:href="#b" y1="28.333" y2="113.89"/><linearGradient id="d" gradientUnits="userSpaceOnUse" x1="64" x2="64" xlink:href="#b" y1="7.6667" y2="30.241"/><path d="m96 43.44v12c0 1.1.9 2 2 2h12c1.1 0 2-.9 2-2v-12c0-1.1-.9-2-2-2h-12c-1.1 0-2 .89-2 2zm12 10h-8v-8h8z" fill="#bdbdbd"/><path d="m108.5 21.5v-.5h-9v.5c0 1.91 1.22 6.1 3 6.73l-.06.95c0 .53-.03.89.13 1.27.26.63.97 1.07 1.43 1.26.76.32 1.5.9 1.5 1.73s-.67 1.5-1.5 1.5-1.5-.67-1.5-1.5c0-.41-.12-.68-.29-.94-.11-.17-.3-.29-.54-.36-.66-.17-1.27 0-1.66.47-.48.57-.55 1.47-.19 2.29.28.62.73 1.22 1.39 1.84.82.78 1.83 1.2 2.84 1.2h.02c2.39-.01 4.38-1.98 4.44-4.37.07-2.83-2.16-3.34-3-4.35-.31-.37 0-.98 0-.98 1.77-.64 2.99-4.83 2.99-6.74z" fill="#bdbdbd"/><path d="m46 40h4c1.1 0 2 .9 2 2v6h24v-6c0-1.1.9-2 2-2h4c1.1 0 2 .9 2 2v26h24v-1c0-1.66 1.34-3 3-3h2c1.66 0 3 1.34 3 3v49h-72v-74c0-1.1.9-2 2-2z" fill="url(#a)"/><path d="m86 108h20c1.1 0 2-.9 2-2v-8c0-1.1-.9-2-2-2h-20c-1.1 0-2 .9-2 2v8c0 1.1.9 2 2 2z" fill="#455a64"/><path d="m86 88h20c1.1 0 2-.9 2-2v-8c0-1.1-.9-2-2-2h-20c-1.1 0-2 .9-2 2v8c0 1.1.9 2 2 2z" fill="#455a64"/><path d="m54 88h20c1.1 0 2-.9 2-2v-8c0-1.1-.9-2-2-2h-20c-1.1 0-2 .9-2 2v8c0 1.1.9 2 2 2z" fill="#455a64"/><path d="m54 108h20c1.1 0 2-.9 2-2v-8c0-1.1-.9-2-2-2h-20c-1.1 0-2 .9-2 2v8c0 1.1.9 2 2 2z" fill="#455a64"/><path d="m54 68h20c1.1 0 2-.9 2-2v-8c0-1.1-.9-2-2-2h-20c-1.1 0-2 .9-2 2v8c0 1.1.9 2 2 2z" fill="#455a64"/><path d="m12 28v4 80h20v-80-4m-16 78v-7.59c0-.89 1.08-1.34 1.71-.71l8.59 8.59c.63.63.18 1.71-.71 1.71h-7.59c-1.1 0-2-.9-2-2zm10.29-5.36-6.93-6.93c-.63-.63-.18-1.71.71-1.71h5.93c1.1 0 2 .9 2 2v5.93c0 .89-1.08 1.34-1.71.71zm-10.29-14.64v-7.59c0-.89 1.08-1.34 1.71-.71l8.59 8.59c.63.63.18 1.71-.71 1.71h-7.59c-1.1 0-2-.9-2-2zm10.29-5.36-6.93-6.93c-.63-.63-.18-1.71.71-1.71h5.93c1.1 0 2 .9 2 2v5.93c0 .89-1.08 1.34-1.71.71zm-10.29-14.64v-7.59c0-.89 1.08-1.34 1.71-.71l8.59 8.59c.63.63.18 1.71-.71 1.71h-7.59c-1.1 0-2-.9-2-2zm10.29-5.36-6.93-6.93c-.63-.63-.18-1.71.71-1.71h5.93c1.1 0 2 .9 2 2v5.93c0 .89-1.08 1.34-1.71.71zm-10.29-14.64v-7.59c0-.89 1.08-1.34 1.71-.71l8.59 8.59c.63.63.18 1.71-.71 1.71h-7.59c-1.1 0-2-.9-2-2zm10.29-5.36-6.93-6.93c-.63-.63-.18-1.71.71-1.71h5.93c1.1 0 2 .9 2 2v5.93c0 .89-1.08 1.34-1.71.71zm-.7-12.64h-7.59" fill="url(#c)"/><path d="m28 8h-20c0-2.21 1.79-4 4-4h20c2.21 0 4 1.79 4 4z" fill="#ffb300"/><path d="m104 46.52c-.83 0-1.5-.25-1.5-1.08v-11.44c0-.52.67-1.12 1.5-1.12s1.5.68 1.5 1.12v11.44c0 .83-.67 1.08-1.5 1.08z" fill="#ff9800"/><path d="m30.5 25.5v89h-17v-89zm-3.51 16.93c1.38 0 2.51-1.12 2.51-2.5v-5.93c0-1.93-1.57-3.5-3.5-3.5h-5.93c-1.01 0-1.92.61-2.31 1.54-.39.94-.18 2.01.54 2.72l6.93 6.93c.48.48 1.1.74 1.76.74m-8.99 7.07h7.59c1.01 0 1.92-.61 2.31-1.54.39-.94.18-2.01-.54-2.72l-8.59-8.59c-.47-.47-1.1-.73-1.76-.73-1.38 0-2.51 1.12-2.51 2.5v7.58c0 1.93 1.57 3.5 3.5 3.5m8.99 12.93c1.38 0 2.51-1.12 2.51-2.5v-5.93c0-1.93-1.57-3.5-3.5-3.5h-5.93c-1.01 0-1.92.61-2.31 1.54-.39.94-.18 2.01.54 2.72l6.93 6.93c.48.48 1.1.74 1.76.74m-8.99 7.07h7.59c1.01 0 1.92-.61 2.31-1.54.39-.94.18-2.01-.54-2.72l-8.59-8.59c-.47-.47-1.1-.73-1.76-.73-1.38 0-2.51 1.12-2.51 2.5v7.58c0 1.93 1.57 3.5 3.5 3.5m8.99 12.93c1.38 0 2.51-1.12 2.51-2.5v-5.93c0-1.93-1.57-3.5-3.5-3.5h-5.93c-1.01 0-1.92.61-2.31 1.54-.39.94-.18 2.01.54 2.72l6.93 6.93c.48.48 1.1.74 1.76.74m-8.99 7.07h7.59c1.01 0 1.92-.61 2.31-1.54.39-.94.18-2.01-.54-2.72l-8.59-8.59c-.47-.47-1.1-.73-1.76-.73-1.38 0-2.51 1.12-2.51 2.5v7.58c0 1.93 1.57 3.5 3.5 3.5m8.99 12.93c1.38 0 2.51-1.12 2.51-2.5v-5.93c0-1.93-1.57-3.5-3.5-3.5h-5.93c-1.01 0-1.92.61-2.31 1.54-.39.94-.18 2.01.54 2.72l6.93 6.93c.48.48 1.1.74 1.76.74m-8.99 7.07h7.59c1.01 0 1.92-.61 2.31-1.54.39-.94.18-2.01-.54-2.72l-8.59-8.59c-.47-.47-1.1-.73-1.76-.73-1.38 0-2.51 1.12-2.51 2.5v7.58c0 1.93 1.57 3.5 3.5 3.5m14-85.5h-6.41-7.59-6v8 84h20v-84zm-5.01 16.93c-.25 0-.5-.09-.7-.29l-6.93-6.93c-.63-.63-.18-1.71.71-1.71h5.93c1.1 0 2 .9 2 2v5.93c0 .6-.49 1-1.01 1zm-8.99 7.07c-1.1 0-2-.9-2-2v-7.59c0-.6.49-1 1.01-1 .25 0 .5.09.7.29l8.59 8.59c.63.63.18 1.71-.71 1.71zm8.99 12.93c-.25 0-.5-.09-.7-.29l-6.93-6.93c-.63-.63-.18-1.71.71-1.71h5.93c1.1 0 2 .9 2 2v5.93c0 .6-.49 1-1.01 1zm-8.99 7.07c-1.1 0-2-.9-2-2v-7.59c0-.6.49-1 1.01-1 .25 0 .5.09.7.29l8.59 8.59c.63.63.18 1.71-.71 1.71zm8.99 12.93c-.25 0-.5-.09-.7-.29l-6.93-6.93c-.63-.63-.18-1.71.71-1.71h5.93c1.1 0 2 .9 2 2v5.93c0 .6-.49 1-1.01 1zm-8.99 7.07c-1.1 0-2-.9-2-2v-7.59c0-.6.49-1 1.01-1 .25 0 .5.09.7.29l8.59 8.59c.63.63.18 1.71-.71 1.71zm8.99 12.93c-.25 0-.5-.09-.7-.29l-6.93-6.93c-.63-.63-.18-1.71.71-1.71h5.93c1.1 0 2 .9 2 2v5.93c0 .6-.49 1-1.01 1zm-8.99 7.07c-1.1 0-2-.9-2-2v-7.59c0-.6.49-1 1.01-1 .25 0 .5.09.7.29l8.59 8.59c.63.63.18 1.71-.71 1.71z" fill="#424242" opacity=".2"/><path d="m16 24h20c0 2.21-1.79 4-4 4h-20c-2.21 0-4-1.79-4-4z" fill="#ffb300"/><path d="m32 112h-20c-2.21 0-4 1.79-4 4v8h28v-8c0-2.21-1.79-4-4-4z" fill="#ffb300"/><g fill="#424242"><path d="m110 42.94c.28 0 .5.22.5.5v12c0 .28-.22.5-.5.5h-12c-.28 0-.5-.22-.5-.5v-12c0-.28.22-.5.5-.5zm-11.5 12h11v-11h-11zm11.5-13.5h-12c-1.1 0-2 .9-2 2v12c0 1.1.9 2 2 2h12c1.1 0 2-.9 2-2v-12c0-1.11-.9-2-2-2zm-10 12v-8h8v8z" opacity=".2"/><path d="m106.91 22.5c-.3 1.86-1.3 4.1-1.91 4.31l-.57.2-.27.55c-.05.1-.09.2-.13.31l.04-.69-1.07-.37c-.61-.21-1.61-2.45-1.91-4.31zm-2.97 6.88c.07.28.2.54.41.79.02.03.04.05.07.08-.23-.13-.42-.29-.46-.37-.02-.05-.02-.29-.02-.49zm2.93 3.21c.1.26.14.56.13.94-.04 1.57-1.31 2.85-2.87 2.91 1.59-.07 2.87-1.39 2.87-3 0-.3-.04-.58-.13-.85m1.63-11.59h-9v.5c0 1.91 1.22 6.1 3 6.73l-.06.95c0 .53-.03.89.13 1.27.26.63.97 1.07 1.43 1.26.76.32 1.5.9 1.5 1.73s-.67 1.5-1.5 1.5-1.5-.67-1.5-1.5c0-.41-.12-.68-.29-.94-.11-.17-.3-.29-.54-.36-.17-.04-.33-.07-.49-.07-.46 0-.87.18-1.17.53-.48.57-.55 1.47-.19 2.29.28.62.73 1.22 1.39 1.84.82.78 1.83 1.2 2.84 1.2h.02c2.39-.01 4.38-1.98 4.44-4.37.07-2.83-2.16-3.34-3-4.35-.31-.37 0-.98 0-.98 1.78-.63 3-4.82 3-6.73v-.5z" opacity=".2"/><path d="m81 43v25c0 1.66 1.34 3 3 3h24c1.66 0 3-1.34 3-3v-1h2v50h-66v-74h2v5c0 1.66 1.34 3 3 3h24c1.66 0 3-1.34 3-3v-5zm1-3h-4c-1.1 0-2 .9-2 2v6h-24v-6c0-1.1-.9-2-2-2h-4c-1.1 0-2 .9-2 2v78h72v-53c0-1.66-1.34-3-3-3h-2c-1.66 0-3 1.34-3 3v1h-24v-26c0-1.1-.9-2-2-2z" opacity=".2"/><path d="m106 98v8h-20v-8zm0-2h-20c-1.1 0-2 .9-2 2v8c0 1.1.9 2 2 2h20c1.1 0 2-.9 2-2v-8c0-1.1-.9-2-2-2z" opacity=".2"/><path d="m106 78v8h-20v-8zm0-2h-20c-1.1 0-2 .9-2 2v8c0 1.1.9 2 2 2h20c1.1 0 2-.9 2-2v-8c0-1.1-.9-2-2-2z" opacity=".2"/><path d="m74 78v8h-20v-8zm0-2h-20c-1.1 0-2 .9-2 2v8c0 1.1.9 2 2 2h20c1.1 0 2-.9 2-2v-8c0-1.1-.9-2-2-2z" opacity=".2"/><path d="m74 98v8h-20v-8zm0-2h-20c-1.1 0-2 .9-2 2v8c0 1.1.9 2 2 2h20c1.1 0 2-.9 2-2v-8c0-1.1-.9-2-2-2z" opacity=".2"/><path d="m74 58v8h-20v-8zm0-2h-20c-1.1 0-2 .9-2 2v8c0 1.1.9 2 2 2h20c1.1 0 2-.9 2-2v-8c0-1.1-.9-2-2-2z" opacity=".2"/><path d="m32 5.5c1.38 0 2.5 1.12 2.5 2.5v.96h-25v-.96c0-1.38 1.12-2.5 2.5-2.5zm0-1.5h-20c-2.21 0-4 1.79-4 4v2.46h28v-2.46c0-2.21-1.79-4-4-4z" opacity=".2"/><path d="m34.5 23.04v.96c0 1.38-1.12 2.5-2.5 2.5h-20c-1.38 0-2.5-1.12-2.5-2.5v-.96zm1.5-1.5h-28v2.46c0 2.21 1.79 4 4 4h20c2.21 0 4-1.79 4-4z" opacity=".2"/></g><path d="m104 46.52c-.83 0-1.5-.25-1.5-1.08v-11.44c0-.52.67-1.12 1.5-1.12s1.5.68 1.5 1.12v11.44c0 .83-.67 1.08-1.5 1.08z" fill="#ff9800"/><path d="m124 124h-120v-4c0-2.21 1.79-4 4-4h112c2.21 0 4 1.79 4 4z" fill="#ffb300"/><path d="m114.48 9.03c-.65-.66-1.55-1.03-2.48-1.03h-104c-2.21 0-4 1.79-4 4v8c0 2.21 1.79 4 4 4h112.49c1.94 0 3.51-1.57 3.51-3.51v-.49c0-.93-.37-1.82-1.03-2.48zm-106.48 8.97v-4c0-1.1.9-2 2-2h8c1.1 0 2 .9 2 2v4c0 1.1-.9 2-2 2h-8c-1.1 0-2-.9-2-2zm16 0v-4c0-1.1.9-2 2-2h8c1.1 0 2 .9 2 2v4c0 1.1-.9 2-2 2h-8c-1.1 0-2-.9-2-2zm16 0v-4c0-1.1.9-2 2-2h8c1.1 0 2 .9 2 2v4c0 1.1-.9 2-2 2h-8c-1.1 0-2-.9-2-2zm16 0v-4c0-1.1.9-2 2-2h8c1.1 0 2 .9 2 2v4c0 1.1-.9 2-2 2h-8c-1.1 0-2-.9-2-2zm16 0v-4c0-1.1.9-2 2-2h8c1.1 0 2 .9 2 2v4c0 1.1-.9 2-2 2h-8c-1.1 0-2-.9-2-2zm16 0v-4c0-1.1.9-2 2-2h8c1.1 0 2 .9 2 2v4c0 1.1-.9 2-2 2h-8c-1.1 0-2-.9-2-2zm16 0v-4c0-1.1.9-2 2-2h4.97c.53 0 1.04.21 1.41.59l4 4c1.26 1.26.37 3.41-1.41 3.41h-8.97c-1.1 0-2-.9-2-2z" fill="url(#d)"/><path d="m32 115c.55 0 1 .45 1 1 0 1.66 1.34 3 3 3h84c.55 0 1 .45 1 1v1h-114v-1c0-.55.45-1 1-1 1.66 0 3-1.34 3-3 0-.55.45-1 1-1zm0-3h-20c-2.21 0-4 1.79-4 4-2.21 0-4 1.79-4 4v4h120v-4c0-2.21-1.79-4-4-4h-84c0-2.21-1.79-4-4-4z" fill="#424242" opacity=".2"/><path d="m112 9.5c.54 0 1.04.21 1.42.59l8.49 8.49c.38.38.59.88.59 1.42v.49c0 1.11-.9 2.01-2.01 2.01h-112.49c-1.38 0-2.5-1.12-2.5-2.5v-8c0-1.38 1.12-2.5 2.5-2.5zm-6 12h8.97c1.42 0 2.69-.85 3.23-2.16s.25-2.81-.76-3.81l-4-4c-.66-.66-1.54-1.03-2.47-1.03h-4.97c-1.93 0-3.5 1.57-3.5 3.5v4c0 1.93 1.57 3.5 3.5 3.5m-16 0h8c1.93 0 3.5-1.57 3.5-3.5v-4c0-1.93-1.57-3.5-3.5-3.5h-8c-1.93 0-3.5 1.57-3.5 3.5v4c0 1.93 1.57 3.5 3.5 3.5m-16 0h8c1.93 0 3.5-1.57 3.5-3.5v-4c0-1.93-1.57-3.5-3.5-3.5h-8c-1.93 0-3.5 1.57-3.5 3.5v4c0 1.93 1.57 3.5 3.5 3.5m-16 0h8c1.93 0 3.5-1.57 3.5-3.5v-4c0-1.93-1.57-3.5-3.5-3.5h-8c-1.93 0-3.5 1.57-3.5 3.5v4c0 1.93 1.57 3.5 3.5 3.5m-16 0h8c1.93 0 3.5-1.57 3.5-3.5v-4c0-1.93-1.57-3.5-3.5-3.5h-8c-1.93 0-3.5 1.57-3.5 3.5v4c0 1.93 1.57 3.5 3.5 3.5m-16 0h8c1.93 0 3.5-1.57 3.5-3.5v-4c0-1.93-1.57-3.5-3.5-3.5h-8c-1.93 0-3.5 1.57-3.5 3.5v4c0 1.93 1.57 3.5 3.5 3.5m-16 0h8c1.93 0 3.5-1.57 3.5-3.5v-4c0-1.93-1.57-3.5-3.5-3.5h-8c-1.93 0-3.5 1.57-3.5 3.5v4c0 1.93 1.57 3.5 3.5 3.5m102-13.5h-104c-2.21 0-4 1.79-4 4v8c0 2.21 1.79 4 4 4h112.49c1.94 0 3.51-1.57 3.51-3.51v-.49c0-.93-.37-1.82-1.03-2.48l-8.49-8.49c-.65-.66-1.55-1.03-2.48-1.03zm-6 12c-1.1 0-2-.9-2-2v-4c0-1.1.9-2 2-2h4.97c.53 0 1.04.21 1.41.59l4 4c1.26 1.26.37 3.41-1.41 3.41zm-16 0c-1.1 0-2-.9-2-2v-4c0-1.1.9-2 2-2h8c1.1 0 2 .9 2 2v4c0 1.1-.9 2-2 2zm-16 0c-1.1 0-2-.9-2-2v-4c0-1.1.9-2 2-2h8c1.1 0 2 .9 2 2v4c0 1.1-.9 2-2 2zm-16 0c-1.1 0-2-.9-2-2v-4c0-1.1.9-2 2-2h8c1.1 0 2 .9 2 2v4c0 1.1-.9 2-2 2zm-16 0c-1.1 0-2-.9-2-2v-4c0-1.1.9-2 2-2h8c1.1 0 2 .9 2 2v4c0 1.1-.9 2-2 2zm-16 0c-1.1 0-2-.9-2-2v-4c0-1.1.9-2 2-2h8c1.1 0 2 .9 2 2v4c0 1.1-.9 2-2 2zm-16 0c-1.1 0-2-.9-2-2v-4c0-1.1.9-2 2-2h8c1.1 0 2 .9 2 2v4c0 1.1-.9 2-2 2z" fill="#424242" opacity=".2"/><path d="m104 33.88c.23 0 .42.15.5.24v11.32.02c-.06.02-.21.06-.5.06s-.44-.04-.5-.06v-.02-11.36c.07-.07.25-.2.5-.2m0-1c-.83 0-1.5.6-1.5 1.12v11.44c0 .83.67 1.08 1.5 1.08s1.5-.25 1.5-1.08v-11.44c0-.44-.67-1.12-1.5-1.12z" fill="#424242" opacity=".2"/></svg>