<svg height="64" preserveAspectRatio="none" viewBox="0 0 64 64" width="64" xmlns="http://www.w3.org/2000/svg" xmlns:xlink="http://www.w3.org/1999/xlink"><linearGradient id="a" gradientUnits="userSpaceOnUse" x1="10.013672" x2="70.204773" y1="15.665039" y2="60.385319"><stop offset="0" stop-color="#ffea9f"/><stop offset=".4" stop-color="#bf8200"/><stop offset="1" stop-color="#ffc23f"/></linearGradient><linearGradient id="b" gradientUnits="userSpaceOnUse" x1="15.196289" x2="9.513195" y1="31.940918" y2="26.257824"><stop offset="0" stop-color="#846600"/><stop offset=".517241" stop-color="#ffcf1a"/><stop offset="1" stop-color="#e3b700"/></linearGradient><path d="m58.4960938 50.7802734h-52.9921875c-1.8696289 0-3.390625-1.4355469-3.390625-3.2001953v-31.1601562c0-1.7646484 1.5209961-3.2001953 3.390625-3.2001953h52.9921875c1.8691406 0 3.390625 1.4355469 3.390625 3.2001953v31.1601563c0 1.7646484-1.5214844 3.2001952-3.390625 3.2001952zm-52.9921875-35.5605468c-.7666016 0-1.390625.5385742-1.390625 1.2001953v31.1601563c0 .6621094.6240234 1.2001953 1.390625 1.2001953h52.9921875c.7666016 0 1.390625-.5380859 1.390625-1.2001953v-31.1601563c0-.6616211-.6240234-1.2001953-1.390625-1.2001953z" fill="#872000"/><path d="m60.8867188 47.5800781c0 1.2148438-1.0712891 2.2001953-2.390625 2.2001953h-52.9921875c-1.3203125 0-2.390625-.9853516-2.390625-2.2001953v-31.1601562c0-1.2148438 1.0703125-2.2001953 2.390625-2.2001953h52.9921875c1.3193359 0 2.390625.9853516 2.390625 2.2001953z" fill="url(#a)"/><path d="m27.3271484 25.5439453h32.7773438s-3.6621094-1.1337891-5.9013672-3.1767578c-2.0429688-1.8662109-4.3261719-6.2939453-4.3261719-6.2939453h-2.2900391s-4.4072266 7.3457031-7.8125 7.3457031c-3.4023438 0-5.7294922-.5722656-5.7294922-.5722656s-4.4218749 2.6972656-6.7177734 2.6972656z" fill="#fff" opacity=".47"/><path d="m58.4960938 14.2197266h-52.9921875c-1.3203125 0-2.390625.9853516-2.390625 2.2001953v11.9384766c5.984375 3.9931641 13.7714844 7.4726563 22.5869141 9.7890625 13.7929688 3.6240234 26.7939453 3.5341797 35.1865234.4257813v-22.1533204c0-1.2148438-1.0712891-2.2001953-2.390625-2.2001953z" fill="#fff" opacity=".22"/><path d="m58.0273438 46.4638672c0 .2285156-.1875.4121094-.4169922.4121094h-9.2363281c-.2304688 0-.4169922-.1835938-.4169922-.4121094v-5.8564453c0-.2285156.1865234-.4130859.4169922-.4130859h9.2363281c.2294922 0 .4169922.1845703.4169922.4130859z" fill="#fff"/><path d="m10.6777344 37.3427734v-.6855469c0-.1005859.0439453-.1699219.1689453-.1699219.1259766 0 .1699219.0693359.1699219.1699219v.8535156c0 .1230469-.0810547.1699219-.1699219.1699219h-1.3359375c-.0888672 0-.1699219-.046875-.1699219-.1699219 0-.1210938.0810547-.1679688.1699219-.1679688h.4980469v-1.9619141h-.4980469c-.0888672 0-.1699219-.0478516-.1699219-.1708984 0-.1220703.0810547-.1699219.1699219-.1699219h.8378906v2.3027344h.3291016z" fill="#3f3e3d"/><path d="m12.1191406 37.3427734h1.1669922c.0888672 0 .1699219.046875.1699219.1679688 0 .1230469-.0810547.1699219-.1699219.1699219h-1.5058594v-1.1064453c0-.2529297.1289063-.3837891.3828125-.3837891h.9541016v-.8095703h-1.1669922c-.0888672 0-.1699219-.0478516-.1699219-.1708984 0-.1220703.0810547-.1699219.1699219-.1699219h1.1259766c.1123047 0 .1904297.0175781.2753906.0966797.0947266.0869141.1044922.1796875.1044922.3017578v.6953125c0 .1230469-.0097656.2138672-.1044922.3027344-.0849609.0771484-.1630859.09375-.2753906.09375h-.9570313z" fill="#3f3e3d"/><path d="m14.3896484 35.3808594c-.0888672 0-.1699219-.0478516-.1699219-.1708984 0-.1220703.0810547-.1699219.1699219-.1699219h1.1669922c.1933594 0 .3388672.1474609.3388672.3408203v.6513672c0 .1357422-.0273438.234375-.1318359.328125.1044922.0966797.1318359.1943359.1318359.3310547v.6513672c0 .1923828-.1455078.3378906-.3388672.3378906h-1.1669922c-.0888672 0-.1699219-.046875-.1699219-.1699219 0-.1210938.0810547-.1679688.1699219-.1679688h1.1669922v-.5644531c0-.1894531-.0751953-.2480469-.1699219-.2480469h-.6650391c-.0878906 0-.1699219-.046875-.1699219-.1699219 0-.1210938.0820313-.1699219.1699219-.1699219h.6650391c.0947266 0 .1699219-.0566406.1699219-.2470703v-.5625h-1.1669922z" fill="#3f3e3d"/><path d="m17.8261719 36.4794922v-.9804688c0-.0849609.0410156-.1699219.1699219-.1699219s.1689453.0849609.1689453.1699219v.9804688c.0888672 0 .1699219.046875.1699219.1699219s-.0810547.1699219-.1699219.1699219v.6914063c0 .109375-.046875.1699219-.1689453.1699219s-.1699219-.0605469-.1699219-.1699219v-.6914063h-.9970703v-1.609375c0-.0849609.0400391-.1699219.1689453-.1699219s.1699219.0849609.1699219.1699219v1.2695313h.6582031z" fill="#3f3e3d"/><path d="m22.2138672 36.1904297h.6240234c.1083984 0 .1894531.0175781.2714844.0966797.0947266.0869141.1044922.1699219.1044922.2871094v.7265625c0 .1064453-.0097656.1796875-.0810547.2646484-.0849609.1015625-.1728516.1152344-.2949219.1152344h-.7539063c-.0878906 0-.1386719-.0224609-.2236328-.0605469l-.1289063-.0585938c-.0917969-.0390625-.1933594-.0693359-.1933594-.1884766 0-.0888672.0742188-.1699219.1621094-.1699219.0410156 0 .0712891.0087891.109375.0263672l.1015625.0449219c.046875.0195313.1259766.0683594.1796875.0683594h.7841798v-.8125h-1.0009766v-1.4902344h1.1699219c.0888672 0 .1699219.0478516.1699219.1699219 0 .1230469-.0810547.1708984-.1699219.1708984h-.8300781z" fill="#3f3e3d"/><path d="m24.3164063 36.4794922h1.1337891c.1699219 0 .203125.0722656.203125.2285156v.7587891c0 .1611328-.0673828.2138672-.2197266.2138672h-1.2353516c-.1591797 0-.2207031-.0566406-.2207031-.2138672v-2.2568359c0-.0771484.0273438-.1699219.1455078-.1699219h.203125c.0888672 0 .1601563.0820313.1601563.1699219 0 .1025391-.0712891.1708984-.1699219.1708984zm0 .3398437v.5234375h.9980469v-.5234375z" fill="#3f3e3d"/><path d="m26.7558594 35.3808594c0 .0751953-.0605469.1699219-.1689453.1699219s-.1699219-.0947266-.1699219-.1699219v-.1708984c0-.0732422.0615234-.1699219.1699219-.1699219h1.5068359v.984375c0 .1191406.0029297.1318359-.0917969.2148438l-.4755859.4101563c-.0878906.0771484-.0947266.0849609-.0947266.2041016v.6572266c0 .109375-.0478516.1699219-.1699219.1699219s-.1689453-.0605469-.1689453-.1699219v-.8173828c0-.1123047.0029297-.1210938.0878906-.1972656l.4677734-.4033203c.1123047-.0986328.1054688-.0947266.1054688-.2441406v-.4677734h-.9980468z" fill="#3f3e3d"/><path d="m30.0234375 35.0400391c.1152344 0 .1699219.0820313.1699219.1699219v.9804688c.1054688 0 .1865234.0380859.2480469.0966797.0605469.0566406.0917969.1416016.0917969.2470703v.8085938c0 .2060547-.1289063.3378906-.3398438.3378906h-.9980469c-.2099609 0-.3388672-.1318359-.3388672-.3378906v-.8085938c0-.1054688.0302734-.1904297.0917969-.2470703.0605469-.0585938.1425781-.0966797.2470703-.0966797v-.9804688c0-.0878906.0546875-.1699219.1699219-.1699219zm.1699219 2.3027343v-.8125h-.9980469v.8125zm-.3398438-1.1523437v-.8095703h-.3183594v.8095703z" fill="#3f3e3d"/><path d="m35.0722656 36.2490234h-1.1669922c-.0957031 0-.1699219-.0810547-.1699219-.1699219v-.8691406c0-.0878906.0742188-.1699219.1699219-.1699219h1.3369141c.0947266 0 .1689453.0820313.1689453.1699219v2.3007813c0 .0927734-.0664063.1699219-.1689453.1699219h-.1699219c-.1015625 0-.1699219-.0771484-.1699219-.1699219 0-.1005859.0722656-.1679688.1699219-.1679688zm0-.3398437v-.5283203h-.9980469v.5283203z" fill="#3f3e3d"/><path d="m37.5126953 35.0400391c.1865234 0 .3388672.1533203.3388672.3408203v1.9619141c0 .1884766-.1455078.3378906-.3388672.3378906h-.9980469c-.1933594 0-.3388672-.1494141-.3388672-.3378906v-1.9619141c0-.1875.1523438-.3408203.3388672-.3408203zm0 2.3027343v-1.9619141h-.9980469v1.9619141z" fill="#3f3e3d"/><path d="m39.9521484 37.3427734v-.6855469c0-.1005859.0449219-.1699219.1699219-.1699219.1259766 0 .1689453.0693359.1689453.1699219v.8535156c0 .1230469-.0810547.1699219-.1689453.1699219h-1.3369141c-.0888672 0-.1699219-.046875-.1699219-.1699219 0-.1210938.0810547-.1679688.1699219-.1679688h.4990234v-1.9619141h-.4990234c-.0888672 0-.1699219-.0478516-.1699219-.1708984 0-.1220703.0810547-.1699219.1699219-.1699219h.8378906v2.3027344h.3291016z" fill="#3f3e3d"/><path d="m41.3945313 37.3427734h1.1679687c.0878906 0 .1689453.046875.1689453.1679688 0 .1230469-.0810547.1699219-.1689453.1699219h-1.5068359v-1.1064453c0-.2529297.1289063-.3837891.3828125-.3837891h.9541016v-.8095703h-1.1669922c-.0888672 0-.1699219-.0478516-.1699219-.1708984 0-.1220703.0810547-.1699219.1699219-.1699219h1.1259766c.1123047 0 .1904297.0175781.2753906.0966797.0947266.0869141.1044922.1796875.1044922.3017578v.6953125c0 .1230469-.0097656.2138672-.1044922.3027344-.0849609.0771484-.1630859.09375-.2753906.09375h-.9570313z" fill="#3f3e3d"/><path d="m46.1054688 35.3808594c-.0888672 0-.1699219-.0478516-.1699219-.1708984 0-.1220703.0810547-.1699219.1699219-.1699219h1.1669922c.1933594 0 .3388672.1474609.3388672.3408203v.6513672c0 .1357422-.0263672.234375-.1318359.328125.1054688.0966797.1318359.1943359.1318359.3310547v.6513672c0 .1923828-.1455078.3378906-.3388672.3378906h-1.1669922c-.0888672 0-.1699219-.046875-.1699219-.1699219 0-.1210938.0810547-.1679688.1699219-.1679688h1.1669922v-.5644531c0-.1894531-.0751953-.2480469-.1699219-.2480469h-.6650391c-.0878906 0-.1699219-.046875-.1699219-.1699219 0-.1210938.0820313-.1699219.1699219-.1699219h.6650391c.0947266 0 .1699219-.0566406.1699219-.2470703v-.5625h-1.1669922z" fill="#3f3e3d"/><path d="m49.5419922 36.4794922v-.9804688c0-.0849609.0410156-.1699219.1699219-.1699219.1298828 0 .1699219.0849609.1699219.1699219v.9804688c.0878906 0 .1689453.046875.1689453.1699219s-.0810547.1699219-.1689453.1699219v.6914063c0 .109375-.0478516.1699219-.1699219.1699219-.1210938 0-.1699219-.0605469-.1699219-.1699219v-.6914063h-.9970703v-1.609375c0-.0849609.0410156-.1699219.1689453-.1699219.1298828 0 .1699219.0849609.1699219.1699219v1.2695313h.6582031z" fill="#3f3e3d"/><path d="m51.4902344 36.1904297h.6240234c.109375 0 .1904297.0175781.2724609.0966797.0947266.0869141.1044922.1699219.1044922.2871094v.7265625c0 .1064453-.0097656.1796875-.0810547.2646484-.0849609.1015625-.1728516.1152344-.2958984.1152344h-.7529297c-.0878906 0-.1396484-.0224609-.2236328-.0605469l-.1289063-.0585938c-.0917969-.0390625-.1933594-.0693359-.1933594-.1884766 0-.0888672.0742188-.1699219.1630859-.1699219.0400391 0 .0703125.0087891.1083984.0263672l.1015625.0449219c.0478516.0195313.125.0683594.1796875.0683594h.7841797v-.8125h-1.0009766v-1.4902344h1.1708984c.0878906 0 .1689453.0478516.1689453.1699219 0 .1230469-.0810547.1708984-.1689453.1708984h-.8320313v.8095704z" fill="#3f3e3d"/><path d="m53.59375 36.4794922h1.1347656c.1689453 0 .2021484.0722656.2021484.2285156v.7587891c0 .1611328-.0664063.2138672-.2197266.2138672h-1.2353516c-.1591797 0-.2207031-.0566406-.2207031-.2138672v-2.2568359c0-.0771484.0273438-.1699219.1464844-.1699219h.203125c.0888672 0 .1591797.0820313.1591797.1699219 0 .1025391-.0703125.1708984-.1699219.1708984v1.0986328zm0 .3398437v.5234375h.9980469v-.5234375z" fill="#3f3e3d"/><path d="m10.4140625 37.3427734v-.6855469c0-.1005859.0439453-.1699219.1699219-.1699219.125 0 .1699219.0693359.1699219.1699219v.8535156c0 .1230469-.0820313.1699219-.1699219.1699219h-1.3369141c-.0888672 0-.1699219-.046875-.1699219-.1699219 0-.1210938.0810547-.1679688.1699219-.1679688h.4980469v-1.9619141h-.4980469c-.0888672 0-.1699219-.0478516-.1699219-.1708984 0-.1220703.0810547-.1699219.1699219-.1699219h.8378906v2.3027344h.3291016z" fill="#fff"/><path d="m11.8554688 37.3427734h1.1679688c.0878906 0 .1699219.046875.1699219.1679688 0 .1230469-.0820313.1699219-.1699219.1699219h-1.5068359v-1.1064453c0-.2529297.1289063-.3837891.3828125-.3837891h.9541016v-.8095703h-1.1669922c-.0888672 0-.1699219-.0478516-.1699219-.1708984 0-.1220703.0810547-.1699219.1699219-.1699219h1.1259764c.1123047 0 .1904297.0175781.2753906.0966797.0947266.0869141.1054688.1796875.1054688.3017578v.6953125c0 .1230469-.0107422.2138672-.1054688.3027344-.0849609.0771484-.1630859.09375-.2753906.09375h-.9570313v.8124999z" fill="#fff"/><path d="m14.1259766 35.3808594c-.0888672 0-.1699219-.0478516-.1699219-.1708984 0-.1220703.0810547-.1699219.1699219-.1699219h1.1669922c.1933594 0 .3398438.1474609.3398438.3408203v.6513672c0 .1357422-.0273438.234375-.1328125.328125.1054688.0966797.1328125.1943359.1328125.3310547v.6513672c0 .1923828-.1464844.3378906-.3398438.3378906h-1.1669922c-.0888672 0-.1699219-.046875-.1699219-.1699219 0-.1210938.0810547-.1679688.1699219-.1679688h1.1669922v-.5644531c0-.1894531-.0742188-.2480469-.1699219-.2480469h-.6650391c-.0878906 0-.1689453-.046875-.1689453-.1699219 0-.1210938.0810547-.1699219.1689453-.1699219h.6650391c.0957031 0 .1699219-.0566406.1699219-.2470703v-.5625h-1.1669922z" fill="#fff"/><path d="m17.5625 36.4794922v-.9804688c0-.0849609.0410156-.1699219.1699219-.1699219s.1699219.0849609.1699219.1699219v.9804688c.0878906 0 .1699219.046875.1699219.1699219s-.0820313.1699219-.1699219.1699219v.6914063c0 .109375-.0478516.1699219-.1699219.1699219s-.1699219-.060547-.1699219-.169922v-.6914063h-.9970703v-1.609375c0-.0849609.0410156-.1699219.1689453-.1699219.1289063 0 .1699219.0849609.1699219.1699219v1.2695313z" fill="#fff"/><path d="m21.9501953 36.1904297h.6240234c.1083984 0 .1894531.0175781.2714844.0966797.0947266.0869141.1054688.1699219.1054688.2871094v.7265625c0 .1064453-.0107422.1796875-.0820313.2646484-.0839844.1015625-.1728516.1152344-.2949219.1152344h-.7539063c-.0878906 0-.1386719-.0224609-.2236328-.0605469l-.1289063-.0585938c-.0917969-.0390625-.1933594-.0693359-.1933594-.1884766 0-.0888672.0742188-.1699219.1630859-.1699219.0400391 0 .0712891.0087891.1083984.0263672l.1015625.0449219c.0478516.0195313.1259766.0683594.1806641.0683594h.7832031v-.8125h-1.0009766v-1.4902344h1.1708987c.0878906 0 .1699219.0478516.1699219.1699219 0 .1230469-.0820313.1708984-.1699219.1708984h-.8310547z" fill="#fff"/><path d="m24.0537109 36.4794922h1.1328125c.1699219 0 .2041016.0722656.2041016.2285156v.7587891c0 .1611328-.0683594.2138672-.2207031.2138672h-1.2353516c-.1591797 0-.2207031-.0566406-.2207031-.2138672v-2.2568359c0-.0771484.0273438-.1699219.1455078-.1699219h.2041016c.0878906 0 .1591797.0820313.1591797.1699219 0 .1025391-.0712891.1708984-.1689453.1708984v1.0986328zm0 .3398437v.5234375h.9970703v-.5234375z" fill="#fff"/><path d="m26.4931641 35.3808594c0 .0751953-.0615234.1699219-.1699219.1699219s-.1699219-.0947266-.1699219-.1699219v-.1708984c0-.0732422.0615234-.1699219.1699219-.1699219h1.5068359v.984375c0 .1191406.0029297.1318359-.0917969.2148438l-.4746094.4101563c-.0888672.0771484-.0957031.0849609-.0957031.2041016v.6572266c0 .109375-.046875.1699219-.1699219.1699219-.1220703 0-.1689453-.0605469-.1689453-.1699219v-.8173828c0-.1123047.0029297-.1210938.0878906-.1972656l.4677734-.4033203c.1123047-.0986328.1054688-.0947266.1054688-.2441406v-.4677734h-.9970702z" fill="#fff"/><path d="m29.7607422 35.0400391c.1152344 0 .1689453.0820313.1689453.1699219v.9804688c.1054688 0 .1865234.0380859.2480469.0966797.0605469.0566406.0917969.1416016.0917969.2470703v.8085938c0 .2060547-.1289063.3378906-.3398438.3378906h-.9970703c-.2109375 0-.3398438-.1318359-.3398438-.3378906v-.8085938c0-.1054688.0302734-.1904297.0917969-.2470703.0615234-.0585938.1425781-.0966797.2480469-.0966797v-.9804688c0-.0878906.0537109-.1699219.1689453-.1699219zm.1689453 2.3027343v-.8125h-.9970703v.8125zm-.3388672-1.1523437v-.8095703h-.3193359v.8095703z" fill="#fff"/><path d="m34.8085938 36.2490234h-1.1669922c-.0957031 0-.1699219-.0810547-.1699219-.1699219v-.8691406c0-.0878906.0742188-.1699219.1699219-.1699219h1.3378906c.09375 0 .1689453.0820313.1689453.1699219v2.3007813c0 .0927734-.0673828.1699219-.1689453.1699219h-.1708984c-.1015625 0-.1699219-.0771484-.1699219-.1699219 0-.1005859.0722656-.1679688.1699219-.1679688zm0-.3398437v-.5283203h-.9980469v.5283203z" fill="#fff"/><path d="m37.2490234 35.0400391c.1865234 0 .3388672.1533203.3388672.3408203v1.9619141c0 .1884766-.1455078.3378906-.3388672.3378906h-.9980469c-.1923828 0-.3388672-.1494141-.3388672-.3378906v-1.9619141c0-.1875.1523438-.3408203.3388672-.3408203zm0 2.3027343v-1.9619141h-.9980469v1.9619141z" fill="#fff"/><path d="m39.6884766 37.3427734v-.6855469c0-.1005859.0449219-.1699219.1708984-.1699219.125 0 .1689453.0693359.1689453.1699219v.8535156c0 .1230469-.0820313.1699219-.1689453.1699219h-1.3378906c-.0888672 0-.1699219-.046875-.1699219-.1699219 0-.1210938.0810547-.1679688.1699219-.1679688h.4990234v-1.9619141h-.4990234c-.0888672 0-.1699219-.0478516-.1699219-.1708984 0-.1220703.0810547-.1699219.1699219-.1699219h.8378906v2.3027344h.3291016z" fill="#fff"/><path d="m41.1308594 37.3427734h1.1679688c.0878906 0 .1689453.046875.1689453.1679688 0 .1230469-.0810547.1699219-.1689453.1699219h-1.5068359v-1.1064453c0-.2529297.1289063-.3837891.3828125-.3837891h.9541016v-.8095703h-1.1669922c-.0888672 0-.1699219-.0478516-.1699219-.1708984 0-.1220703.0810547-.1699219.1699219-.1699219h1.1259766c.1123047 0 .1904297.0175781.2753906.0966797.0947266.0869141.1044922.1796875.1044922.3017578v.6953125c0 .1230469-.0097656.2138672-.1044922.3027344-.0849609.0771484-.1630859.09375-.2753906.09375h-.9570313v.8124999z" fill="#fff"/><path d="m45.8417969 35.3808594c-.0888672 0-.1699219-.0478516-.1699219-.1708984 0-.1220703.0810547-.1699219.1699219-.1699219h1.1669922c.1933594 0 .3388672.1474609.3388672.3408203v.6513672c0 .1357422-.0263672.234375-.1318359.328125.1054688.0966797.1318359.1943359.1318359.3310547v.6513672c0 .1923828-.1455078.3378906-.3388672.3378906h-1.1669922c-.0888672 0-.1699219-.046875-.1699219-.1699219 0-.1210938.0810547-.1679688.1699219-.1679688h1.1669922v-.5644531c0-.1894531-.0742188-.2480469-.1699219-.2480469h-.6650391c-.0878906 0-.1699219-.046875-.1699219-.1699219 0-.1210938.0820313-.1699219.1699219-.1699219h.6650391c.0957031 0 .1699219-.0566406.1699219-.2470703v-.5625h-1.1669922z" fill="#fff"/><path d="m49.2783203 36.4794922v-.9804688c0-.0849609.0410156-.1699219.1708984-.1699219.1289063 0 .1699219.0849609.1699219.1699219v.9804688c.0869141 0 .1689453.046875.1689453.1699219s-.0820313.1699219-.1689453.1699219v.6914063c0 .109375-.0488281.1699219-.1699219.1699219-.1220703 0-.1708984-.0605469-.1708984-.1699219v-.6914063h-.9970703v-1.609375c0-.0849609.0410156-.1699219.1689453-.1699219.1298828 0 .1708984.0849609.1708984.1699219v1.2695313h.6572266z" fill="#fff"/><path d="m51.2265625 36.1904297h.6240234c.1103516 0 .1914063.0175781.2724609.0966797.0947266.0869141.1044922.1699219.1044922.2871094v.7265625c0 .1064453-.0097656.1796875-.0810547.2646484-.0849609.1015625-.1728516.1152344-.2958984.1152344h-.7519531c-.0888672 0-.1396484-.0224609-.2236328-.0605469l-.1298828-.0585938c-.0917969-.0390625-.1933594-.0693359-.1933594-.1884766 0-.0888672.0742188-.1699219.1630859-.1699219.0410156 0 .0712891.0087891.1083984.0263672l.1015625.0449219c.0478516.0195313.125.0683594.1796875.0683594h.7841797v-.8125h-1.0009766v-1.4902344h1.1708984c.0878906 0 .1689453.0478516.1689453.1699219 0 .1230469-.0810547.1708984-.1689453.1708984h-.8320313v.8095704z" fill="#fff"/><path d="m53.3310547 36.4794922h1.1337891c.1689453 0 .203125.0722656.203125.2285156v.7587891c0 .1611328-.0673828.2138672-.2207031.2138672h-1.234375c-.1601563 0-.2216797-.0566406-.2216797-.2138672v-2.2568359c0-.0771484.0273438-.1699219.1464844-.1699219h.203125c.0888672 0 .1601563.0820313.1601563.1699219 0 .1025391-.0712891.1708984-.1699219.1708984v1.0986328zm0 .3398437v.5234375h.9980469v-.5234375z" fill="#fff"/><path d="m10.9150391 20.3164063v-3.1523438l-4.8232422 1.5751953z" fill="#fff"/><path d="m57.2050781 45.6181641-1.6894531-3.359375-1.4394531.3320313s-.8212891 1.4160156-1.8486328 2.1416016c-1.6884766 1.1914063-3.4023438 1.2089844-3.4023438 1.2089844v-5.0517578h8.3798828z" fill="#025b00"/><path d="m15.6884766 31.1181641c0 .4873047-.4541016.8818359-1.0136719.8818359h-4.640625c-.5605469 0-1.0136719-.3945313-1.0136719-.8818359v-4.0390625c0-.4863281.453125-.8808594 1.0136719-.8808594h4.640625c.5595703 0 1.0136719.3945313 1.0136719.8808594z" fill="url(#b)"/><path d="m14.6748047 32.2441406h-4.640625c-.6938477 0-1.2578125-.5048828-1.2578125-1.1259766v-4.0390625c0-.6206055.5639648-1.125 1.2578125-1.125h4.640625c.6938477 0 1.2578125.5043945 1.2578125 1.125v4.0390625c0 .6210938-.5639649 1.1259766-1.2578125 1.1259766zm-4.640625-5.8017578c-.4243164 0-.7695313.2856445-.7695313.6367188v4.0390625c0 .3515625.3452148.6376953.7695313.6376953h4.640625c.4243164 0 .7695313-.2861328.7695313-.6376953v-4.0390625c0-.3510742-.3452148-.6367188-.7695313-.6367188z" fill="#773000"/><path d="m9.1757813 42.4492188h.8291016c.0629883 0 .1206055.0341797.1206055.1210938 0 .0859375-.0576172.1201172-.1206055.1201172h-1.0703126v-.7861328c0-.1806641.0917969-.2724609.2724609-.2724609h.6772461v-.5761719h-.8291015c-.0629883 0-.1206055-.0332031-.1206055-.1201172s.0576172-.1210938.1206055-.1210938h.800293c.0795898 0 .1352539.0126953.1953125.0673828.0673828.0634766.074707.1279297.074707.2148438v.4941406c0 .0869141-.0073242.1523438-.074707.2148438-.0600586.0556641-.1157227.0673828-.1953125.0673828h-.6796875z" fill="#3f3e3d"/><path d="m11.6245117 40.8144531c.1328125 0 .2412109.1083984.2412109.2412109v1.3935547c0 .1347656-.1035156.2412109-.2412109.2412109h-.7084961c-.1376953 0-.2412109-.1064453-.2412109-.2412109v-1.3935547c0-.1328125.1083984-.2412109.2412109-.2412109zm0 1.6347657v-1.3935547h-.7084961v1.3935547z" fill="#3f3e3d"/><path d="m12.5356445 41.0556641c-.0629883 0-.1206055-.0332031-.1206055-.1201172s.0576172-.1210938.1206055-.1210938h.8291016c.1376953 0 .2412109.1035156.2412109.2412109v.4628906c0 .0966797-.019043.1669922-.0942383.234375.0751953.0673828.0942383.1367188.0942383.2333984v.4628906c0 .1376953-.1035156.2412109-.2412109.2412109h-.8291016c-.0629883 0-.1206055-.0341797-.1206055-.1201172 0-.0869141.0576172-.1210938.1206055-.1210938h.8291016v-.4003906c0-.1347656-.0527344-.1757813-.1206055-.1757813h-.472168c-.0629883 0-.1206055-.0332031-.1206055-.1201172s.0576172-.1210938.1206055-.1210938h.472168c.0678711 0 .1206055-.0410156.1206055-.1757813v-.4003906h-.8291016z" fill="#3f3e3d"/><path d="m15.1049805 40.8144531c.1328125 0 .2412109.1083984.2412109.2412109v1.3935547c0 .1347656-.1035156.2412109-.2412109.2412109h-.7084961c-.1376953 0-.2412109-.1064453-.2412109-.2412109v-1.3935547c0-.1328125.1083984-.2412109.2412109-.2412109zm0 1.6347657v-1.3935547h-.7084961v1.3935547z" fill="#3f3e3d"/><path d="m9.5830078 46.9072266c-.1806641 0-.2841797-.0722656-.3613281-.2294922l-.222168-.4482422c-.0410156-.0820313-.0649414-.1591797-.0649414-.2529297 0-.1064453.019043-.1708984.0673828-.2675781l.2216797-.4462891c.0820313-.1660156.1860352-.2314453.371582-.2314453h.409668c.0532227 0 .1206055.0292969.1206055.1210938 0 .0869141-.0649414.1201172-.1206055.1201172h-.4023437c-.1040039 0-.1206055.0097656-.1665039.1015625l-.2099609.4189453c-.03125.0654297-.050293.109375-.050293.1835938 0 .0673828.0214844.1083984.050293.1660156l.2050781.4169922c.0483398.0996094.0722656.1064453.1806641.1064453h.3930664c.0532227 0 .1206055.0292969.1206055.1210938 0 .0859375-.0649414.1201172-.1206055.1201172h-.4218751z" fill="#3f3e3d"/><path d="m10.9541016 45.1542969c.0190429-.0644531.0458984-.1230469.1230468-.1230469.0791016 0 .1083984.0605469.125.1230469l.465332 1.6328125c.0170898.0576172-.0483398.1201172-.1157227.1201172-.074707 0-.1132813-.0625-.1298828-.1201172l-.0893555-.2900391h-.5136719l-.0913086.2900391c-.0170898.0576172-.0556641.1201172-.1303711.1201172-.0673828 0-.1328125-.0625-.1157227-.1201172zm.125.4482422h-.0043946l-.1884766.6533203h.3789063z" fill="#3f3e3d"/><path d="m12.2695313 46.7871094c0 .0771484-.0336914.1201172-.1206055.1201172s-.1206055-.0429688-.1206055-.1201172v-1.7558594h.8100586c.1904297 0 .3808594.1357422.3808594.3496094v.1669922c0 .2265625-.1879883.3417969-.3808594.3417969h-.2216797l.5424805.7763672c.0263672.0361328.0600586.0820313.0600586.1279297 0 .0673828-.0551758.1132813-.1230469.1132813-.0483398 0-.0795898-.0292969-.105957-.0673828l-.6655273-.9501953h-.0551758zm0-1.1386719h.5351563c.0673828 0 .1733398-.0048828.1733398-.1005859v-.1669922c0-.0957031-.0986328-.1083984-.1708984-.1083984h-.5375977z" fill="#3f3e3d"/><path d="m13.8115234 45.2724609h-.0893554c-.0795898 0-.1469727-.0283203-.1469727-.1201172 0-.0869141.0649414-.1210938.1396484-.1210938h.402832c.1879883 0 .2822266.0771484.3637695.2412109l.2124023.4248047c.0483398.0986328.0722656.1689453.0722656.2792969 0 .0966797-.0263672.1787109-.0698242.265625l-.2192383.4384766c-.0844727.1708984-.1928711.2265625-.3813477.2265625h-.3999023c-.0629883 0-.1206055-.0341797-.1206055-.1201172 0-.0869141.0576172-.1210938.1206055-.1210938h.1157227v-1.3935546zm.241211 1.3935547h.0454102c.1015625 0 .1254883-.0117188.1689453-.1015625l.2124023-.4287109c.0263672-.0556641.0454102-.0966797.0454102-.15625 0-.0820313-.0263672-.1279297-.0600586-.1982422l-.2001953-.4072266c-.0507813-.1035156-.0722656-.1015625-.1831055-.1015625h-.0288086z" fill="#3f3e3d"/><path d="m15.3632813 46.0898438v.6972656c0 .0771484-.0336914.1201172-.1206055.1201172s-.1206055-.0429688-.1206055-.1201172v-1.6347656c0-.0771484.0336914-.1210938.1206055-.1210938s.1206055.0439453.1206055.1210938v.6962891h.7084961v-.6962891c0-.0771484.0336914-.1210938.1206055-.1210938s.1206055.0439453.1206055.1210938v1.6347656c0 .0771484-.0336914.1201172-.1206055.1201172s-.1206055-.0429688-.1206055-.1201172v-.6972656z" fill="#3f3e3d"/><path d="m17.7973633 45.7089844c.0454102.09375.0625.1640625.0625.2675781 0 .1162109-.03125.1884766-.0795898.2871094l-.2216797.4433594c-.0581055.1162109-.1542969.2001953-.2939453.2001953-.1401367 0-.2363281-.0839844-.2944336-.2001953l-.2216797-.4433594c-.0483398-.0986328-.0795898-.1708984-.0795898-.2871094 0-.1035156.0166016-.1738281.0625-.2675781l.2412109-.4794922c.0581055-.1132813.1567383-.1982422.2919922-.1982422.1347656 0 .2333984.0849609.2915039.1982422zm-.4511719-.3642578c-.019043-.0380859-.03125-.0722656-.081543-.0722656-.0507813 0-.0629883.0341797-.0820313.0722656l-.2172851.4365234c-.0361328.0703125-.0551758.1162109-.0551758.1953125 0 .0625.0141602.1064453.0410156.1591797l.2314453.4580078c.0166016.0341797.0336914.0722656.0820313.0722656.0478516 0 .0649414-.0380859.081543-.0722656l.2314453-.4580078c.0268555-.0527344.0410156-.0966797.0410156-.1591797 0-.0791016-.019043-.125-.0551758-.1953125z" fill="#3f3e3d"/><path d="m19.2861328 46.6660156c.0629883 0 .1206055.0341797.1206055.1210938 0 .0859375-.0576172.1201172-.1206055.1201172h-1.0703125v-1.7548828c0-.0771484.0336914-.1210938.1206055-.1210938s.1206055.0439453.1206055.1210938v1.5136719h.8291015z" fill="#3f3e3d"/><path d="m19.9990234 45.2724609h-.0893554c-.0795898 0-.1469727-.0283203-.1469727-.1201172 0-.0869141.0649414-.1210938.1396484-.1210938h.402832c.1879883 0 .2822266.0771484.3637695.2412109l.2124023.4248047c.0483398.0986328.0722656.1689453.0722656.2792969 0 .0966797-.0263672.1787109-.0698242.265625l-.2192383.4384766c-.0844727.1708984-.1928711.2265625-.3813477.2265625h-.3999023c-.0629883 0-.1206055-.0341797-.1206055-.1201172 0-.0869141.0576172-.1210938.1206055-.1210938h.1157227v-1.3935546zm.241211 1.3935547h.0454102c.1015625 0 .1254883-.0117188.1689453-.1015625l.2124023-.4287109c.0263672-.0556641.0454102-.0966797.0454102-.15625 0-.0820313-.0263672-.1279297-.0600586-.1982422l-.2001953-.4072266c-.0507813-.1035156-.0722656-.1015625-.1831055-.1015625h-.0288086z" fill="#3f3e3d"/><path d="m22.3798828 46.6660156c.0629883 0 .1206055.0341797.1206055.1210938 0 .0859375-.0576172.1201172-.1206055.1201172h-1.0703125v-1.8759766h1.0703125c.0629883 0 .1206055.0341797.1206055.1210938s-.0576172.1201172-.1206055.1201172h-.8291016v.5761719h.3544922c.0625 0 .1201172.0341797.1201172.1210938s-.0576172.1201172-.1201172.1201172h-.3544922v.5761719h.8291016z" fill="#3f3e3d"/><path d="m23.0976563 46.7871094c0 .0771484-.0336914.1201172-.1206055.1201172s-.1206055-.0429688-.1206055-.1201172v-1.7558594h.8100586c.1904297 0 .3808594.1357422.3808594.3496094v.1669922c0 .2265625-.1879883.3417969-.3808594.3417969h-.2216797l.5424805.7763672c.0263672.0361328.0600586.0820313.0600586.1279297 0 .0673828-.0551758.1132813-.1230469.1132813-.0483398 0-.0795898-.0292969-.105957-.0673828l-.6655273-.9501953h-.0551758zm0-1.1386719h.5351563c.0673828 0 .1733398-.0048828.1733398-.1005859v-.1669922c0-.0957031-.0986328-.1083984-.1708984-.1083984h-.5375977z" fill="#3f3e3d"/><path d="m26.9018555 45.1542969c0-.0771484.0336914-.1201172.1206055-.1201172s.1206055.0429688.1206055.1201172v1.7548828h-.3183595l-.6289063-1.4462891v-.0019531h-.0048827v1.3261719c0 .0771484-.0336914.1201172-.1206055.1201172s-.1206055-.0429688-.1206055-.1201172v-1.7558594h.3183594l.6289063 1.4638672h-.0024414.0048828z" fill="#3f3e3d"/><path d="m27.9692383 45.1542969c.019043-.0644531.0454102-.1230469.1225586-.1230469.0795898 0 .1088867.0605469.1254883.1230469l.465332 1.6328125c.0170898.0576172-.0483398.1201172-.1157227.1201172-.074707 0-.1132813-.0625-.1298828-.1201172l-.0893555-.2900391h-.5136719l-.0913086.2900391c-.0170898.0576172-.0556641.1201172-.1303711.1201172-.0673828 0-.1328125-.0625-.1157227-.1201172zm.125.4482422h-.0043945l-.1884766.6533203h.3789063z" fill="#3f3e3d"/><path d="m29.9331055 45.03125h.3012695v1.7558594c0 .0771484-.0336914.1201172-.1206055.1201172s-.1206055-.0429688-.1206055-.1201172v-1.4228516h-.0048828l-.2290039.3398438v.0390625c0 .0742188-.0288086.1445313-.1206055.1445313-.0864258 0-.1201172-.0703125-.1201172-.1445313v-.0390625l-.2290039-.3398438h-.0048827v1.4228516c0 .0771484-.0336914.1201172-.1206055.1201172s-.1206055-.0429688-.1206055-.1201172v-1.7558594h.3012695l.2939453.4248047z" fill="#3f3e3d"/><path d="m31.6606445 46.6660156c.0629883 0 .1206055.0341797.1206055.1210938 0 .0859375-.0576172.1201172-.1206055.1201172h-1.0703125v-1.8759766h1.0703125c.0629883 0 .1206055.0341797.1206055.1210938s-.0576172.1201172-.1206055.1201172h-.8291015v.5761719h.3540039c.0629883 0 .1206055.0341797.1206055.1210938s-.0576172.1201172-.1206055.1201172h-.3540039v.5761719h.8291015z" fill="#3f3e3d"/><path d="m22.0874023 40.8144531c.1328125 0 .2412109.1083984.2412109.2412109v1.3935547c0 .1347656-.1035156.2412109-.2412109.2412109h-.7084961c-.1376953 0-.2412109-.1064453-.2412109-.2412109v-1.3935547c0-.1328125.1083984-.2412109.2412109-.2412109zm0 1.6347657v-1.3935547h-.7084961v1.3935547z" fill="#3f3e3d"/><path d="m23.8276367 40.8144531c.1328125 0 .2412109.1083984.2412109.2412109v1.3935547c0 .1347656-.1035156.2412109-.2412109.2412109h-.7084961c-.1376953 0-.2412109-.1064453-.2412109-.2412109v-1.3935547c0-.1328125.1083984-.2412109.2412109-.2412109zm0 1.6347657v-1.3935547h-.7084961v1.3935547z" fill="#3f3e3d"/><path d="m24.8569336 42.6064453c-.0288086.0498047-.0581055.0839844-.1181641.0839844-.0605469 0-.1206055-.0507813-.1206055-.1132813 0-.0458984.0288086-.0869141.0532227-.125l.9013672-1.5458984c.0288086-.0478516.0581055-.0917969.1181641-.0917969.0629883 0 .1181641.0507813.1181641.1132813 0 .0390625-.012207.0673828-.0263672.0947266z" fill="#3f3e3d"/><path d="m27.3081055 40.8144531c.1328125 0 .2412109.1083984.2412109.2412109v1.3935547c0 .1347656-.1035156.2412109-.2412109.2412109h-.7084961c-.1376953 0-.2412109-.1064453-.2412109-.2412109v-1.3935547c0-.1328125.1083984-.2412109.2412109-.2412109zm0 1.6347657v-1.3935547h-.7084961v1.3935547z" fill="#3f3e3d"/><path d="m29.0483398 40.8144531c.1328125 0 .2412109.1083984.2412109.2412109v1.3935547c0 .1347656-.1035156.2412109-.2412109.2412109h-.7084961c-.1376953 0-.2412109-.1064453-.2412109-.2412109v-1.3935547c0-.1328125.1083984-.2412109.2412109-.2412109zm0 1.6347657v-1.3935547h-.7084961v1.3935547z" fill="#3f3e3d"/><path d="m34.4746094 40.8144531c.1318359 0 .2412109.1083984.2412109.2412109v1.3935547c0 .1347656-.1044922.2412109-.2412109.2412109h-.7089844c-.1376953 0-.2412109-.1064453-.2412109-.2412109v-1.3935547c0-.1328125.1083984-.2412109.2412109-.2412109zm0 1.6347657v-1.3935547h-.7089844v1.3935547z" fill="#3f3e3d"/><path d="m36.2148438 40.8144531c.1318359 0 .2412109.1083984.2412109.2412109v1.3935547c0 .1347656-.1044922.2412109-.2412109.2412109h-.7089844c-.1376953 0-.2412109-.1064453-.2412109-.2412109v-1.3935547c0-.1328125.1083984-.2412109.2412109-.2412109zm0 1.6347657v-1.3935547h-.7089844v1.3935547z" fill="#3f3e3d"/><path d="m37.2431641 42.6064453c-.0283203.0498047-.0576172.0839844-.1181641.0839844-.0595703 0-.1201172-.0507813-.1201172-.1132813 0-.0458984.0292969-.0869141.0527344-.125l.9023438-1.5458984c.0283203-.0478516.0576172-.0917969.1181641-.0917969.0625 0 .1181641.0507813.1181641.1132813 0 .0390625-.0126953.0673828-.0273438.0947266z" fill="#3f3e3d"/><path d="m39.6953125 40.8144531c.1318359 0 .2412109.1083984.2412109.2412109v1.3935547c0 .1347656-.1044922.2412109-.2412109.2412109h-.7089844c-.1376953 0-.2412109-.1064453-.2412109-.2412109v-1.3935547c0-.1328125.1083984-.2412109.2412109-.2412109zm0 1.6347657v-1.3935547h-.7089844v1.3935547z" fill="#3f3e3d"/><path d="m41.4355469 40.8144531c.1318359 0 .2412109.1083984.2412109.2412109v1.3935547c0 .1347656-.1044922.2412109-.2412109.2412109h-.7089844c-.1376953 0-.2412109-.1064453-.2412109-.2412109v-1.3935547c0-.1328125.1083984-.2412109.2412109-.2412109zm0 1.6347657v-1.3935547h-.7089844v1.3935547z" fill="#3f3e3d"/><g fill="#fff"><path d="m9.0180664 42.4189453h.8291016c.0629883 0 .1206055.0341797.1206055.1210938 0 .0859375-.0576172.1201172-.1206055.1201172h-1.0703125v-.7861328c0-.1806641.0917969-.2724609.2724609-.2724609h.6772461v-.5761719h-.8291016c-.0629883 0-.1206055-.0332031-.1206055-.1201172s.0576172-.1210938.1206055-.1210938h.800293c.0795898 0 .1352539.0126953.1953125.0673828.0673828.0634766.074707.1279297.074707.2148438v.4941406c0 .0869141-.0073242.1523438-.074707.2148438-.0600586.0556641-.1157227.0673828-.1953125.0673828h-.6796875z"/><path d="m11.4667969 40.7841797c.1328125 0 .2412109.1083984.2412109.2412109v1.3935547c0 .1347656-.1035156.2412109-.2412109.2412109h-.7084961c-.1376953 0-.2412109-.1064453-.2412109-.2412109v-1.3935547c0-.1328125.1083984-.2412109.2412109-.2412109zm0 1.6347656v-1.3935547h-.7084961v1.3935547z"/><path d="m12.3779297 41.0253906c-.0629883 0-.1206055-.0332031-.1206055-.1201172s.0576172-.1210938.1206055-.1210938h.8291016c.1376953 0 .2412109.1035156.2412109.2412109v.4628906c0 .0966797-.019043.1669922-.09375.234375.074707.0673828.09375.1367188.09375.2333984v.4628906c0 .1376953-.1035156.2412109-.2412109.2412109h-.8291016c-.0629883 0-.1206055-.0341797-.1206055-.1201172 0-.0869141.0576172-.1210938.1206055-.1210938h.8291016v-.4003906c0-.1347656-.0527344-.1757813-.1206055-.1757813h-.472168c-.0629883 0-.1206055-.0332031-.1206055-.1201172s.0576172-.1210938.1206055-.1210938h.472168c.0678711 0 .1206055-.0410156.1206055-.1757813v-.4003906h-.8291016z"/><path d="m14.9472656 40.7841797c.1328125 0 .2412109.1083984.2412109.2412109v1.3935547c0 .1347656-.1035156.2412109-.2412109.2412109h-.7084961c-.1376953 0-.2412109-.1064453-.2412109-.2412109v-1.3935547c0-.1328125.1083984-.2412109.2412109-.2412109zm0 1.6347656v-1.3935547h-.7084961v1.3935547z"/><path d="m9.425293 46.8769531c-.1806641 0-.284668-.0722656-.3618164-.2294922l-.2216797-.4482422c-.0410156-.0820313-.0649414-.1591797-.0649414-.2529297 0-.1064453.019043-.1708984.0673828-.2675781l.2216797-.4462891c.0820313-.1660156.1860352-.2314453.371582-.2314453h.409668c.0532227 0 .1206055.0292969.1206055.1210938 0 .0869141-.0649414.1201172-.1206055.1201172h-.4023438c-.1040039 0-.1206055.0097656-.1665039.1015625l-.2099609.4189453c-.03125.0654297-.050293.109375-.050293.1835938 0 .0673828.0214844.1083984.050293.1660156l.2050781.4179688c.0483398.0986328.0722656.1054688.1806641.1054688h.3930664c.0532227 0 .1206055.0292969.1206055.1210938 0 .0859375-.0649414.1201172-.1206055.1201172h-.421875z"/><path d="m10.7963867 45.1240234c.019043-.0644531.0454102-.1230469.1225586-.1230469.0795898 0 .1088867.0605469.1254883.1230469l.465332 1.6328125c.0170898.0576172-.0483398.1201172-.1157227.1201172-.074707 0-.1132813-.0625-.1298828-.1201172l-.0893555-.2900391h-.5136719l-.0913086.2900391c-.0170898.0576172-.0556641.1201172-.1303711.1201172-.0673828 0-.1328125-.0625-.1157227-.1201172zm.125.4482422h-.0043945l-.1884766.6533203h.3789063z"/><path d="m12.1118164 46.7568359c0 .0771484-.0336914.1201172-.1206055.1201172s-.1206055-.0429688-.1206055-.1201172v-1.7558594h.8100586c.1904297 0 .3808594.1357422.3808594.3496094v.1669922c0 .2265625-.1879883.3417969-.3808594.3417969h-.2216797l.5424805.7763672c.0263672.0361328.0600586.0820313.0600586.1279297 0 .0673828-.0556641.1132813-.1230469.1132813-.0478516 0-.0795898-.0292969-.105957-.0673828l-.6655273-.9501953h-.0551758zm0-1.1386718h.5351563c.0673828 0 .1733398-.0048828.1733398-.1005859v-.1669922c0-.0957031-.0986328-.1083984-.1708984-.1083984h-.5375977z"/><path d="m13.6538086 45.2421875h-.0893555c-.0795898 0-.1469727-.0283203-.1469727-.1201172 0-.0869141.0649414-.1210938.1396484-.1210938h.402832c.1879883 0 .2822266.0771484.3637695.2412109l.2124023.4248047c.0483398.0986328.0722656.1679688.0722656.2792969 0 .0966797-.0263672.1787109-.0698242.265625l-.2192383.4384766c-.0844727.1708984-.1928711.2265625-.3813477.2265625h-.3999023c-.0629883 0-.1206055-.0341797-.1206055-.1201172 0-.0869141.0576172-.1210938.1206055-.1210938h.1157227v-1.3935546zm.2412109 1.3935547h.0454102c.1015625 0 .1254883-.0117188.1689453-.1015625l.2119141-.4287109c.0268555-.0556641.0458984-.0966797.0458984-.15625 0-.0820313-.0263672-.1279297-.0600586-.1982422l-.2001953-.4072266c-.0507813-.1035156-.0722656-.1015625-.1831055-.1015625h-.0288086z"/><path d="m15.2055664 46.0595703v.6972656c0 .0771484-.0336914.1201172-.1206055.1201172s-.1206055-.0429688-.1206055-.1201172v-1.6347656c0-.0771484.0336914-.1210938.1206055-.1210938s.1206055.0439453.1206055.1210938v.6962891h.7084961v-.6962891c0-.0771484.0336914-.1210938.1206055-.1210938s.1206055.0439453.1206055.1210938v1.6347656c0 .0771484-.0336914.1201172-.1206055.1201172s-.1206055-.0429688-.1206055-.1201172v-.6972656z"/><path d="m17.6396484 45.6787109c.0458984.09375.0625.1640625.0625.2675781 0 .1162109-.03125.1884766-.0795898.2871094l-.2216797.4433594c-.0581055.1162109-.1542969.2001953-.2944336.2001953-.1396484 0-.2358398-.0839844-.2939453-.2001953l-.2216797-.4433594c-.0483398-.0986328-.0795898-.1708984-.0795898-.2871094 0-.1035156.0170898-.1738281.0625-.2675781l.2412109-.4794922c.0581055-.1132813.1567383-.1982422.2915039-.1982422.1352539 0 .2338867.0849609.2919922.1982422zm-.4511718-.3642578c-.019043-.0380859-.03125-.0722656-.0820313-.0722656-.050293 0-.0625.0341797-.081543.0722656l-.2172852.4365234c-.0361328.0703125-.0551758.1162109-.0551758.1953125 0 .0625.0141602.1064453.0410156.1591797l.2314453.4580078c.0166016.0341797.0336914.0722656.081543.0722656.0483398 0 .0654297-.0380859.0820313-.0722656l.2314453-.4580078c.0268555-.0527344.0410156-.0966797.0410156-.1591797 0-.0791016-.019043-.125-.0551758-.1953125z"/><path d="m19.128418 46.6357422c.0629883 0 .1206055.0341797.1206055.1210938 0 .0859375-.0576172.1201172-.1206055.1201172h-1.0703125v-1.7548828c0-.0771484.0336914-.1210938.1206055-.1210938s.1206055.0439453.1206055.1210938v1.5136719h.8291015z"/><path d="m19.8413086 45.2421875h-.0893555c-.0795898 0-.1469727-.0283203-.1469727-.1201172 0-.0869141.0649414-.1210938.1396484-.1210938h.402832c.1879883 0 .2822266.0771484.3637695.2412109l.2124023.4248047c.0483398.0986328.0722656.1679688.0722656.2792969 0 .0966797-.0263672.1787109-.0698242.265625l-.2192383.4384766c-.0844727.1708984-.1928711.2265625-.3813477.2265625h-.3999023c-.0629883 0-.1206055-.0341797-.1206055-.1201172 0-.0869141.0576172-.1210938.1206055-.1210938h.1157227v-1.3935546zm.2412109 1.3935547h.0454102c.1015625 0 .1254883-.0117188.1689453-.1015625l.2119141-.4287109c.0268555-.0556641.0458984-.0966797.0458984-.15625 0-.0820313-.0263672-.1279297-.0600586-.1982422l-.2001953-.4072266c-.0507813-.1035156-.0722656-.1015625-.1831055-.1015625h-.0288086z"/><path d="m22.222168 46.6357422c.0629883 0 .1206055.0341797.1206055.1210938 0 .0859375-.0576172.1201172-.1206055.1201172h-1.0703125v-1.8759766h1.0703125c.0629883 0 .1206055.0341797.1206055.1210938s-.0576172.1201172-.1206055.1201172h-.8291016v.5761719h.3540039c.0629883 0 .1206055.0341797.1206055.1210938s-.0576172.1201172-.1206055.1201172h-.3540039v.5761719h.8291016z"/><path d="m22.9399414 46.7568359c0 .0771484-.0336914.1201172-.1206055.1201172s-.1206055-.0429688-.1206055-.1201172v-1.7558594h.8100586c.1904297 0 .3808594.1357422.3808594.3496094v.1669922c0 .2265625-.1879883.3417969-.3808594.3417969h-.2216797l.5424805.7763672c.0263672.0361328.0600586.0820313.0600586.1279297 0 .0673828-.0556641.1132813-.1230469.1132813-.0478516 0-.0795898-.0292969-.105957-.0673828l-.6655273-.9501953h-.0551758zm0-1.1386718h.5351563c.0673828 0 .1733398-.0048828.1733398-.1005859v-.1669922c0-.0957031-.0986328-.1083984-.1708984-.1083984h-.5375977z"/><path d="m26.7441406 45.1240234c0-.0771484.0336914-.1201172.1206055-.1201172s.1206055.0429688.1206055.1201172v1.7548828h-.3183594l-.6289063-1.4462891v-.0019531h-.0048828v1.3261719c0 .0771484-.0336914.1201172-.1206055.1201172s-.1206055-.0429688-.1206055-.1201172v-1.7558594h.3183594l.6289063 1.4638672h-.0024414.0048828z"/><path d="m27.8115234 45.1240234c.019043-.0644531.0458984-.1230469.1230469-.1230469.0791016 0 .1083984.0605469.125.1230469l.465332 1.6328125c.0170898.0576172-.0483398.1201172-.1157227.1201172-.074707 0-.1132813-.0625-.1298828-.1201172l-.0893555-.2900391h-.5136719l-.0913086.2900391c-.0170898.0576172-.0556641.1201172-.1303711.1201172-.0673828 0-.1328125-.0625-.1157227-.1201172zm.125.4482422h-.0043945l-.1884766.6533203h.3789063z"/><path d="m29.7753906 45.0009766h.3012695v1.7558594c0 .0771484-.0336914.1201172-.1206055.1201172s-.1206055-.0429688-.1206055-.1201172v-1.4228516h-.0048828l-.2290039.3398438v.0390625c0 .0742188-.0288086.1445313-.1201172.1445313-.0869141 0-.1206055-.0703125-.1206055-.1445313v-.0390625l-.2290039-.3398438h-.0048828v1.4228516c0 .0771484-.0336914.1201172-.1206055.1201172s-.1206055-.0429688-.1206055-.1201172v-1.7558594h.3012695l.2944336.4248047z"/><path d="m31.5029297 46.6357422c.0629883 0 .1206055.0341797.1206055.1210938 0 .0859375-.0576172.1201172-.1206055.1201172h-1.0703125v-1.8759766h1.0703125c.0629883 0 .1206055.0341797.1206055.1210938s-.0576172.1201172-.1206055.1201172h-.8291016v.5761719h.3544922c.0625 0 .1201172.0341797.1201172.1210938s-.0576172.1201172-.1201172.1201172h-.3544922v.5761719h.8291016z"/><path d="m21.9296875 40.7841797c.1328125 0 .2412109.1083984.2412109.2412109v1.3935547c0 .1347656-.1035156.2412109-.2412109.2412109h-.7084961c-.1376953 0-.2412109-.1064453-.2412109-.2412109v-1.3935547c0-.1328125.1083984-.2412109.2412109-.2412109zm0 1.6347656v-1.3935547h-.7084961v1.3935547z"/><path d="m23.6699219 40.7841797c.1328125 0 .2412109.1083984.2412109.2412109v1.3935547c0 .1347656-.1035156.2412109-.2412109.2412109h-.7084961c-.1376953 0-.2412109-.1064453-.2412109-.2412109v-1.3935547c0-.1328125.1083984-.2412109.2412109-.2412109zm0 1.6347656v-1.3935547h-.7084961v1.3935547z"/><path d="m24.6992188 42.5761719c-.0292969.0498047-.0581055.0839844-.1181641.0839844-.0605469 0-.1206055-.0507813-.1206055-.1132813 0-.0458984.0288086-.0869141.0532227-.125l.9013672-1.5458984c.0288086-.0478516.0581055-.0917969.1181641-.0917969.0625 0 .1181641.0507813.1181641.1132813 0 .0390625-.012207.0673828-.0263672.0947266z"/><path d="m27.1503906 40.7841797c.1328125 0 .2412109.1083984.2412109.2412109v1.3935547c0 .1347656-.1035156.2412109-.2412109.2412109h-.7084961c-.1376953 0-.2412109-.1064453-.2412109-.2412109v-1.3935547c0-.1328125.1083984-.2412109.2412109-.2412109zm0 1.6347656v-1.3935547h-.7084961v1.3935547z"/><path d="m28.890625 40.7841797c.1328125 0 .2412109.1083984.2412109.2412109v1.3935547c0 .1347656-.1035156.2412109-.2412109.2412109h-.7084961c-.1376953 0-.2412109-.1064453-.2412109-.2412109v-1.3935547c0-.1328125.1083984-.2412109.2412109-.2412109zm0 1.6347656v-1.3935547h-.7084961v1.3935547z"/><path d="m34.3164063 40.7841797c.1328125 0 .2412109.1083984.2412109.2412109v1.3935547c0 .1347656-.1035156.2412109-.2412109.2412109h-.7080078c-.1376953 0-.2412109-.1064453-.2412109-.2412109v-1.3935547c0-.1328125.1083984-.2412109.2412109-.2412109zm0 1.6347656v-1.3935547h-.7080078v1.3935547z"/><path d="m36.0576172 40.7841797c.1318359 0 .2412109.1083984.2412109.2412109v1.3935547c0 .1347656-.1044922.2412109-.2412109.2412109h-.7089844c-.1376953 0-.2412109-.1064453-.2412109-.2412109v-1.3935547c0-.1328125.1083984-.2412109.2412109-.2412109zm0 1.6347656v-1.3935547h-.7089844v1.3935547z"/><path d="m37.0859375 42.5761719c-.0283203.0498047-.0576172.0839844-.1181641.0839844-.0595703 0-.1201172-.0507813-.1201172-.1132813 0-.0458984.0292969-.0869141.0527344-.125l.9023438-1.5458984c.0283203-.0478516.0576172-.0917969.1181641-.0917969.0625 0 .1181641.0507813.1181641.1132813 0 .0390625-.0126953.0673828-.0273438.0947266z"/><path d="m39.5380859 40.7841797c.1318359 0 .2412109.1083984.2412109.2412109v1.3935547c0 .1347656-.1044922.2412109-.2412109.2412109h-.7089844c-.1376953 0-.2412109-.1064453-.2412109-.2412109v-1.3935547c0-.1328125.1083984-.2412109.2412109-.2412109zm0 1.6347656v-1.3935547h-.7089844v1.3935547z"/><path d="m41.2783203 40.7841797c.1318359 0 .2412109.1083984.2412109.2412109v1.3935547c0 .1347656-.1044922.2412109-.2412109.2412109h-.7089844c-.1376953 0-.2412109-.1064453-.2412109-.2412109v-1.3935547c0-.1328125.1083984-.2412109.2412109-.2412109zm0 1.6347656v-1.3935547h-.7089844v1.3935547z"/><path d="m35.6552734 21.0268555c-.2578125.0737305-.7988281.1469727-1.4804688.1469727-1.5800781 0-2.7612305-.5507813-2.7612305-1.5703125 0-.9741211 1.1894531-1.6259766 2.9272461-1.6259766.6904297 0 1.1396484.0825195 1.3310547.1376953l-.1835938.3261719c-.265625-.0737305-.6572266-.1289063-1.1220703-.1289063-1.3144531 0-2.1875.4638672-2.1875 1.2768555 0 .7626953.7900391 1.2446289 2.1455078 1.2446289.4492188 0 .8984375-.050293 1.1894531-.128418z"/><path d="m36.5664063 18.0693359c.3662109-.0366211.8984375-.0644531 1.3886719-.0644531.7734375 0 1.28125.0825195 1.6220703.2529297.2744141.1376953.4404297.3486328.4404297.5922852 0 .4042969-.4658203.675293-1.0478516.7851563v.0141602c.4238281.0825195.6816406.3027344.8154297.6245117.1826172.4316406.3154297.7299805.4326172.8496094h-.7490235c-.0917969-.0917969-.2158203-.3535156-.3662109-.7392578-.1660156-.4272461-.4736328-.5878906-1.1308594-.6020508h-.6816406v1.3413086h-.7236328zm.7236328 1.4101563h.7402344c.7734375 0 1.2636719-.234375 1.2636719-.5878906 0-.3999023-.5234375-.5742188-1.2890625-.5742188-.3486328 0-.5898438.0136719-.7148438.0322266z"/><path d="m43.9326172 19.6723633h-2.1708984v1.1157227h2.4287109v.3354492h-3.1601563v-3.0957032h3.0351563v.3354492h-2.3037109v.9780273h2.1708984z"/><path d="m45.1279297 18.0737305c.4414063-.0410156.9648438-.0688477 1.5390625-.0688477 1.0390625 0 1.7792969.1376953 2.2695313.3857422.5078125.2529297.7988281.6108398.7988281 1.1118164 0 .5048828-.2910156.918457-.8066406 1.203125-.5322266.2895508-1.3974609.4453125-2.4863281.4453125-.5244141 0-.9482422-.0136719-1.3144531-.0366211v-3.0405273zm.7236328 2.7373047c.1826172.0141602.4492188.0185547.7314453.0185547 1.5556641 0 2.3867188-.4775391 2.3867188-1.3134766.0087891-.7304688-.7392578-1.1943359-2.2695313-1.1943359-.375 0-.6572266.0185547-.8486328.0415039z"/><path d="m51.3867188 18.027832v3.0957031h-.7314453v-3.0957031z"/><path d="m53.7138672 18.3676758h-1.7050781v-.3398438h4.1503906v.3398438h-1.7128906v2.7558594h-.7324219z"/><path d="m35.6552734 25.387207c-.2578125.0737305-.7988281.1469727-1.4804688.1469727-1.5800781 0-2.7612305-.5507813-2.7612305-1.5703125 0-.9741211 1.1894531-1.6259766 2.9272461-1.6259766.6904297 0 1.1396484.0825195 1.3310547.1376953l-.1835938.3261719c-.265625-.0737305-.6572266-.1289063-1.1220703-.1289063-1.3144531 0-2.1875.4638672-2.1875 1.2768555 0 .7626953.7900391 1.2446289 2.1455078 1.2446289.4492188 0 .8984375-.050293 1.1894531-.128418z"/><path d="m37.4726563 24.5102539-.5820313.9736328h-.7480469l1.9121094-3.0957031h.8652344l1.9130859 3.0957031h-.7734375l-.5986328-.9736328zm1.8466796-.3125-.5576172-.8911133c-.1240234-.2016602-.2080078-.3857422-.2910156-.5649414h-.0166016c-.0830078.1791992-.1660156.3720703-.2822266.5605469l-.5488281.8955078z"/><path d="m41.6533203 22.4296875c.3662109-.0366211.8984375-.0644531 1.3886719-.0644531.7734375 0 1.28125.0825195 1.6220703.2529297.2744141.1376953.4404297.3486328.4404297.5922852 0 .4042969-.4658203.675293-1.0478516.7851563v.0141602c.4248047.0825195.6816406.3027344.8154297.6245117.1826172.4316406.3154297.7299805.4326172.8496094h-.7490234c-.0917969-.0917969-.2158203-.3535156-.3662109-.7392578-.1660156-.4272461-.4736328-.5878906-1.1308594-.6020508h-.6816406v1.3413086h-.7236328v-3.0541994zm.7236328 1.4101563h.7402344c.7734375 0 1.2636719-.234375 1.2636719-.5878906 0-.3999023-.5234375-.5742188-1.2890625-.5742188-.3486328 0-.5898438.0136719-.7148438.0322266z"/><path d="m46.125 22.434082c.4414063-.0410156.9648438-.0688477 1.5390625-.0688477 1.0390625 0 1.7792969.1376953 2.2695313.3857422.5078125.2529297.7988281.6108398.7988281 1.1118164 0 .5048828-.2910156.918457-.8066406 1.203125-.5322266.2895508-1.3974609.4453125-2.4863281.4453125-.5244141 0-.9482422-.0136719-1.3144531-.0366211v-3.0405273zm.7236328 2.7373047c.1826172.0141602.4492188.0185547.7314453.0185547 1.5556641 0 2.3867188-.4775391 2.3867188-1.3134766.0087891-.7304688-.7392578-1.1943359-2.2695313-1.1943359-.375 0-.6572266.0185547-.8486328.0415039z"/></g></svg>