<?xml version="1.0" encoding="UTF-8"?>
<!DOCTYPE svg PUBLIC "-//W3C//DTD SVG 1.1//EN" "http://www.w3.org/Graphics/SVG/1.1/DTD/svg11.dtd">
<!-- Creator: CorelDRAW -->
<svg xmlns="http://www.w3.org/2000/svg" xml:space="preserve" width="6.82666in" height="6.82666in" style="shape-rendering:geometricPrecision; text-rendering:geometricPrecision; image-rendering:optimizeQuality; fill-rule:evenodd; clip-rule:evenodd"
viewBox="0 0 6.82666 6.82666"
 xmlns:xlink="http://www.w3.org/1999/xlink"
 version="1.1">
 <defs>
  <style type="text/css">
   <![CDATA[
    .fil4 {fill:none}
    .fil3 {fill:#9C1C25}
    .fil2 {fill:#AF865D}
    .fil0 {fill:#BE202E}
    .fil1 {fill:#DBAD7D}
   ]]>
  </style>
 </defs>
 <g id="Layer_x0020_1">
  <metadata id="CorelCorpID_0Corel-Layer"/>
  <g id="_575896080">
   <g id="Guides">
   </g>
   <g id="Layer_2">
   </g>
   <g id="Layer_3">
   </g>
   <g id="Layer_4">
   </g>
   <g id="Layer_5">
   </g>
   <g id="Layer_6">
   </g>
   <g id="Layer_7">
   </g>
   <g id="Layer_8">
   </g>
   <g id="Layer_9">
   </g>
   <g id="Layer_10">
   </g>
   <g id="Layer_11">
   </g>
   <g id="Layer_12">
   </g>
   <g id="Layer_13">
   </g>
   <g id="Layer_14">
    <g>
     <g>
      <g>
       <path id="_603731344" class="fil0" d="M5.43133 5.8113l-4.036 0c-0.0337323,0 -0.0610984,-0.0273661 -0.0610984,-0.0610984l0 -2.92667 4.1582 0 0 2.92667c0,0.0337323 -0.0273661,0.0610984 -0.0610984,0.0610984z"/>
      </g>
     </g>
     <g>
      <g>
       <path id="_603730240" class="fil0" d="M5.83626 2.82354l-4.84587 0c-0.0337323,0 -0.0610984,-0.0273661 -0.0610984,-0.0610984l0 -0.489402c0,-0.0337323 0.0273661,-0.0610984 0.0610984,-0.0610984l4.84587 0c0.0337323,0 0.0610984,0.0273661 0.0610984,0.0610984l0 0.489366c0,0.0337677 -0.0273661,0.0611339 -0.0610984,0.0611339z"/>
      </g>
     </g>
     <g>
      <g>
       <g>
        <path id="_603730432" class="fil1" d="M2.996 2.2123l0.255598 -0.000366142c0,0 0.0390984,-0.00179921 0.0391339,-0.0243346 0.000200787,-0.0769685 -0.0297323,-0.160665 -0.0859016,-0.287567 -0.00893307,-0.0201654 -0.0179331,-0.0367677 -0.036,-0.07 -0.00866535,-0.0159685 -0.0695669,-0.127134 -0.154531,-0.237 -0.0299685,-0.0387323 -0.145665,-0.184902 -0.342268,-0.335201 0,0 -0.234598,-0.179366 -0.483402,-0.236402 -0.0161339,-0.00370079 -0.0422992,-0.00859843 -0.0740984,-0.0035315 -0.0666654,0.0106339 -0.110732,0.0574685 -0.141134,0.0917323 -0.0577677,0.0650984 -0.115902,0.140969 -0.225835,0.317567 0,0 -0.0595315,0.0956339 -0.0917323,0.225835 -0.00190157,0.00770079 -0.00540157,0.0228661 -0.0035315,0.0423346 0.00459843,0.0478346 0.0376654,0.0813346 0.0564685,0.0987992 0.174268,0.161933 0.342268,0.243465 0.342268,0.243465 0.143665,0.0697323 0.271465,0.127799 0.3785,0.174665l0.566465 3.93701e-006z"/>
       </g>
      </g>
      <g>
       <g>
        <path id="_603729472" class="fil1" d="M5.1708 1.65267c-0.0322008,-0.130165 -0.0917323,-0.225835 -0.0917323,-0.225835 -0.109933,-0.176598 -0.168067,-0.252465 -0.225835,-0.317567 -0.0304016,-0.0342677 -0.0744685,-0.0810984 -0.141134,-0.0917323 -0.0317992,-0.00506693 -0.0579685,-0.000165354 -0.0740984,0.0035315 -0.248768,0.0570669 -0.483402,0.236402 -0.483402,0.236402 -0.196598,0.150299 -0.312268,0.296433 -0.342268,0.335201 -0.085,0.109835 -0.145866,0.221031 -0.154531,0.237 -0.0180315,0.0332008 -0.0270669,0.0497992 -0.036,0.07 -0.0561654,0.126902 -0.0860669,0.210598 -0.0859016,0.287567 6.69291e-005,0.0225315 0.0391339,0.0243346 0.0391339,0.0243346l0.255598 0.000366142 0.566437 0c0.107031,-0.0468661 0.234866,-0.104933 0.3785,-0.174665 0,0 0.167969,-0.0815315 0.342268,-0.243465 0.0187992,-0.0174685 0.0518661,-0.0509685 0.0564685,-0.0987992 0.00189764,-0.019437 -0.00157087,-0.0346063 -0.00350394,-0.0423386z"/>
       </g>
      </g>
      <g>
       <g>
        <path id="_603729952" class="fil2" d="M3.0665 2.21194c-0.430902,-0.303433 -0.900634,-0.483402 -1.13087,-0.548665 -0.0994685,-0.0282008 -0.132201,-0.0172677 -0.144665,0 -0.0132992,0.0184016 -0.00486614,0.0487323 0.0176339,0.0705669 0.182965,0.1775 0.862701,0.478098 0.862701,0.478098l0.395197 0z"/>
       </g>
      </g>
      <g>
       <g>
        <path id="_603729040" class="fil2" d="M5.03253 1.66327c-0.0124685,-0.0172677 -0.0452008,-0.0282008 -0.144665,0 -0.230232,0.0652677 -0.699933,0.245232 -1.13087,0.548665l0.395169 0c0,0 0.679732,-0.300598 0.862701,-0.478098 0.0225315,-0.0218346 0.0309646,-0.0521693 0.0176614,-0.0705669z"/>
       </g>
      </g>
      <g>
       <g>
        <path id="_603729280" class="fil2" d="M3.40696 1.8547c-0.197299,0 -0.357268,0.159933 -0.357268,0.357268l0.7145 -3.93701e-006c3.54331e-005,-0.197331 -0.159933,-0.357264 -0.357232,-0.357264z"/>
       </g>
      </g>
     </g>
     <g>
      <g>
       <rect id="_603728200" class="fil3" x="1.33423" y="2.82354" width="4.1582" height="0.149701"/>
      </g>
     </g>
     <g>
      <g>
       <rect id="_603727744" class="fil1" x="3.1804" y="2.21194" width="0.465866" height="3.59936"/>
      </g>
     </g>
     <g>
      <g>
       <rect id="_603716656" class="fil2" x="3.1804" y="2.82354" width="0.465866" height="0.149701"/>
      </g>
     </g>
    </g>
   </g>
   <g id="Layer_15">
   </g>
   <g id="Layer_16">
   </g>
   <g id="Layer_17">
   </g>
   <g id="Layer_18">
   </g>
   <g id="Layer_19">
   </g>
   <g id="Layer_20">
   </g>
   <g id="Layer_21">
   </g>
   <g id="Layer_22">
   </g>
   <g id="Layer_23">
   </g>
   <g id="Layer_24">
   </g>
   <g id="Layer_25">
   </g>
   <g id="Layer_26">
   </g>
  </g>
 </g>
 <rect class="fil4" width="6.82666" height="6.82666"/>
</svg>
