<svg height="56" viewBox="0 0 56 56" width="56" xmlns="http://www.w3.org/2000/svg"><path d="m27.9883 51.6719c.375 0 .9843-.1406 1.5938-.4688 13.3124-7.4765 17.9062-10.6406 17.9062-19.1953v-17.9297c0-2.4609-1.0782-3.2343-3.0469-4.0781-2.7656-1.1484-11.7188-4.3594-14.4844-5.3203-.6328-.211-1.289-.3516-1.9687-.3516-.6562 0-1.3125.1875-1.9453.3516-2.7656.8437-11.7188 4.1953-14.4844 5.3203-1.9687.8203-3.0469 1.6172-3.0469 4.0781v17.9297c0 8.5547 4.6172 11.6953 17.9063 19.1953.6094.3282 1.1953.4688 1.5703.4688zm0-4.2656c-.3516 0-.75-.1407-1.4531-.5625-10.8282-6.5625-14.2969-8.4844-14.2969-15.7032v-16.3593c0-.7969.164-1.1016.7969-1.3594 3.5625-1.4063 10.4296-3.8438 14.039-5.1328.3516-.1407.6563-.211.9141-.211.2812 0 .5625.0703.9375.211 3.6094 1.289 10.4063 3.8906 14.039 5.1328.6329.2343.7969.5625.7969 1.3594v16.3593c0 7.2188-3.4922 9.1172-14.2969 15.7032-.7031.4218-1.1015.5625-1.4765.5625zm-5.836-9.0938h11.6719c1.6406 0 2.4141-.8203 2.4141-2.5781v-9.0938c0-1.5468-.6094-2.3672-1.8516-2.5312v-2.7891c0-4.3125-2.5781-7.2187-6.3984-7.2187-3.7969 0-6.3984 2.9062-6.3984 7.2187v2.8125c-1.2188.1641-1.8282.9844-1.8282 2.5078v9.0938c0 1.7578.7735 2.5781 2.3906 2.5781zm1.8751-17.25c0-2.7656 1.5937-4.5938 3.9609-4.5938 2.3906 0 3.9609 1.8282 3.9609 4.5938v3l-7.9218.0235z"/></svg>